<?xml version="1.0" encoding="UTF-8" standalone="no"?>
<svg
   width="24"
   height="24"
   version="1.1"
   id="svg5"
   sodipodi:docname="alldesktops.svg"
   inkscape:version="1.3 (0e150ed6c4, 2023-07-21)"
   xmlns:inkscape="http://www.inkscape.org/namespaces/inkscape"
   xmlns:sodipodi="http://sodipodi.sourceforge.net/DTD/sodipodi-0.dtd"
   xmlns="http://www.w3.org/2000/svg"
   xmlns:svg="http://www.w3.org/2000/svg">
  <defs
     id="defs5" />
  <sodipodi:namedview
     id="namedview5"
     pagecolor="#505050"
     bordercolor="#eeeeee"
     borderopacity="1"
     inkscape:showpageshadow="0"
     inkscape:pageopacity="0"
     inkscape:pagecheckerboard="0"
     inkscape:deskcolor="#505050"
     inkscape:zoom="17.5625"
     inkscape:cx="9.7935943"
     inkscape:cy="5.3238434"
     inkscape:window-width="1920"
     inkscape:window-height="1016"
     inkscape:window-x="0"
     inkscape:window-y="32"
     inkscape:window-maximized="1"
     inkscape:current-layer="active-center" />
  <g
     id="hover-center"
     transform="matrix(1.0909091,0,0,1.0909091,-1.0909092,0)">
    <g
       transform="translate(23)"
       id="g1">
      <rect
         style="opacity:0.001"
         width="22"
         height="22"
         x="0"
         y="0"
         id="rect1" />
    </g>
    <path
       style="fill:#1a9fff"
       transform="matrix(0.91666666,0,0,0.91666666,1.0000001,0)"
       d="M 36 2 A 10 10 0 0 0 26 12 A 10 10 0 0 0 36 22 A 10 10 0 0 0 46 12 A 10 10 0 0 0 36 2 z M 36 8 A 4.0003637 4.0003637 0 0 1 40 12 A 4.0003637 4.0003637 0 0 1 36 16 A 4.0003637 4.0003637 0 0 1 32 12 A 4.0003637 4.0003637 0 0 1 36 8 z"
       id="path1" />
  </g>
  <g
     id="pressed-center"
     transform="matrix(1.0909091,0,0,1.0909091,-2.1818183,0)">
    <g
       transform="translate(46)"
       id="g2">
      <rect
         style="opacity:0.001"
         width="22"
         height="22"
         x="0"
         y="0"
         id="rect2" />
    </g>
    <path
       style="fill:#1a9fff"
       transform="matrix(0.91666666,0,0,0.91666666,2.0000001,0)"
       d="M 60 2 A 10 10 0 0 0 50 12 A 10 10 0 0 0 60 22 A 10 10 0 0 0 70 12 A 10 10 0 0 0 60 2 z M 60 8 A 4.0003637 4.0003637 0 0 1 64 12 A 4.0003637 4.0003637 0 0 1 60 16 A 4.0003637 4.0003637 0 0 1 56 12 A 4.0003637 4.0003637 0 0 1 60 8 z"
       id="path2" />
  </g>
  <g
     id="inactive-center"
     transform="matrix(1.0909091,0,0,1.0909091,-3.2727274,0)"
     style="fill:#1a9fff;fill-opacity:1">
    <rect
       style="opacity:0.001;fill:#1a9fff;fill-opacity:1"
       width="22"
       height="22"
       x="69"
       y="0"
       id="rect3" />
    <circle
       style="opacity:0.3;fill:#1a9fff;fill-opacity:1"
       cx="80"
       cy="11"
       r="3.667"
       id="circle3" />
  </g>
  <g
     id="deactivated-center"
     transform="matrix(1.0909091,0,0,1.0909091,-4.3636365,0)"
     style="fill:#1a9fff;fill-opacity:1">
    <rect
       style="opacity:0.001;fill:#1a9fff;fill-opacity:1"
       width="22"
       height="22"
       x="92"
       y="0"
       id="rect4" />
    <circle
       style="opacity:0.3;fill:#1a9fff;fill-opacity:1"
       cx="103"
       cy="11"
       r="3.667"
       id="circle4" />
  </g>
  <g
     id="active-center"
     transform="matrix(1.0909091,0,0,1.0909091,-25.090909,0)"
     style="fill:#0e131a;fill-opacity:1">
    <g
       transform="translate(23)"
       id="g5"
       style="fill:#0e131a;fill-opacity:1">
      <rect
         style="opacity:0.00100002;fill:#0e131a;fill-opacity:1"
         width="22"
         height="22"
         x="0"
         y="0"
         id="rect5" />
    </g>
    <rect
       style="fill:#1a9fff;fill-opacity:1;stroke-width:30;stroke-opacity:0.83427;paint-order:markers stroke fill"
       id="rect6"
       width="14.732867"
       height="13.525603"
       x="4.6424394"
       y="5.2275338"
       transform="matrix(0.91666666,0,0,0.91666666,23,0)" />
    <path
       style="fill:#0e131a;fill-opacity:1"
       transform="matrix(0.91666666,0,0,0.91666666,23,0)"
       d="M 12 2 A 10 10 0 0 0 2 12 A 10 10 0 0 0 12 22 A 10 10 0 0 0 22 12 A 10 10 0 0 0 12 2 z M 12 8 A 4.0003637 4.0003637 0 0 1 16 12 A 4.0003637 4.0003637 0 0 1 12 16 A 4.0003637 4.0003637 0 0 1 8 12 A 4.0003637 4.0003637 0 0 1 12 8 z"
       id="path5" />
  </g>
</svg>
