<?xml version="1.0" encoding="UTF-8" standalone="no"?>
<svg
   width="24"
   height="24"
   version="1.1"
   id="svg5"
   sodipodi:docname="keepabove.svg"
   inkscape:version="1.3 (0e150ed6c4, 2023-07-21)"
   xmlns:inkscape="http://www.inkscape.org/namespaces/inkscape"
   xmlns:sodipodi="http://sodipodi.sourceforge.net/DTD/sodipodi-0.dtd"
   xmlns="http://www.w3.org/2000/svg"
   xmlns:svg="http://www.w3.org/2000/svg">
  <defs
     id="defs5" />
  <sodipodi:namedview
     id="namedview5"
     pagecolor="#505050"
     bordercolor="#eeeeee"
     borderopacity="1"
     inkscape:showpageshadow="0"
     inkscape:pageopacity="0"
     inkscape:pagecheckerboard="0"
     inkscape:deskcolor="#505050"
     inkscape:zoom="17.5625"
     inkscape:cx="77.266904"
     inkscape:cy="12.55516"
     inkscape:window-width="1920"
     inkscape:window-height="1016"
     inkscape:window-x="0"
     inkscape:window-y="32"
     inkscape:window-maximized="1"
     inkscape:current-layer="svg5" />
  <g
     id="hover-center"
     transform="matrix(1.0909091,0,0,1.0909091,-1.0909091,0)">
    <rect
       style="opacity:0.001"
       width="22"
       height="22"
       x="23"
       y="0"
       id="rect1" />
    <path
       style="fill:#8240fe"
       transform="matrix(0.91666666,0,0,0.91666666,1,0)"
       d="M 36 2 A 10 10 0 0 0 26 12 A 10 10 0 0 0 36 22 A 10 10 0 0 0 46 12 A 10 10 0 0 0 36 2 z M 36 8 L 41 14 L 31 14 L 36 8 z"
       id="path1" />
  </g>
  <g
     id="pressed-center"
     transform="matrix(1.0909091,0,0,1.0909091,-2.1818182,0)">
    <rect
       style="opacity:0.001"
       width="22"
       height="22"
       x="46"
       y="0"
       id="rect2" />
    <path
       style="fill:#8240fe"
       transform="matrix(0.91666666,0,0,0.91666666,2,0)"
       d="M 60 2 A 10 10 0 0 0 50 12 A 10 10 0 0 0 60 22 A 10 10 0 0 0 70 12 A 10 10 0 0 0 60 2 z M 60 8 L 65 14 L 55 14 C 56.666668 12 58.333333 10 60 8 z"
       id="path2" />
  </g>
  <g
     id="inactive-center"
     transform="matrix(1.0909091,0,0,1.0909091,-3.2727273,0)"
     style="fill:#8240fe;fill-opacity:1">
    <rect
       style="opacity:0.001;fill:#8240fe;fill-opacity:1"
       width="22"
       height="22"
       x="69"
       y="0"
       id="rect3" />
    <path
       style="opacity:0.3;fill:#8240fe;fill-opacity:1"
       d="M 80,7.3333332 C 81.527778,9.166666 83.055556,11 84.583333,12.833333 c -3.055555,0 -6.111111,0 -9.166666,0 C 76.944445,11 78.472222,9.1666666 80,7.3333332 Z"
       id="path3" />
  </g>
  <g
     id="deactivated-center"
     transform="matrix(1.0909091,0,0,1.0909091,-4.3636364,0)"
     style="fill:#8240fe;fill-opacity:1">
    <rect
       style="opacity:0.001;fill:#8240fe;fill-opacity:1"
       width="22"
       height="22"
       x="92"
       y="0"
       id="rect4" />
    <path
       style="opacity:0.3;fill:#8240fe;fill-opacity:1"
       d="m 103,7.3333332 4.58333,5.4999998 h -9.166664 z"
       id="path4" />
  </g>
  <g
     id="active-center"
     transform="matrix(1.0909091,0,0,1.0909091,-25.090909,0)">
    <rect
       style="opacity:0.00100002"
       width="22"
       height="22"
       x="23"
       y="0"
       id="rect5" />
    <rect
       style="fill:#8240fe;fill-opacity:1;stroke-width:38.8909;stroke-opacity:0.83427;paint-order:markers stroke fill"
       id="rect6"
       width="9.166666"
       height="5.4999986"
       x="29.416666"
       y="7.3333344" />
    <path
       style="fill:#0e131a;fill-opacity:1"
       transform="matrix(0.91666666,0,0,0.91666666,23,0)"
       d="M 12 2 A 10 10 0 0 0 2 12 A 10 10 0 0 0 12 22 A 10 10 0 0 0 22 12 A 10 10 0 0 0 12 2 z M 12 8 L 17 14 L 7 14 L 12 8 z"
       id="path5" />
  </g>
</svg>
