<?xml version="1.0" encoding="UTF-8" standalone="no"?>
<svg
   width="24"
   height="24"
   version="1.1"
   id="svg5"
   sodipodi:docname="minimize.svg"
   inkscape:version="1.3 (0e150ed6c4, 2023-07-21)"
   xmlns:inkscape="http://www.inkscape.org/namespaces/inkscape"
   xmlns:sodipodi="http://sodipodi.sourceforge.net/DTD/sodipodi-0.dtd"
   xmlns="http://www.w3.org/2000/svg"
   xmlns:svg="http://www.w3.org/2000/svg">
  <defs
     id="defs5" />
  <sodipodi:namedview
     id="namedview5"
     pagecolor="#505050"
     bordercolor="#eeeeee"
     borderopacity="1"
     inkscape:showpageshadow="0"
     inkscape:pageopacity="0"
     inkscape:pagecheckerboard="0"
     inkscape:deskcolor="#505050"
     inkscape:zoom="17.5625"
     inkscape:cx="32.085409"
     inkscape:cy="16.996441"
     inkscape:window-width="1920"
     inkscape:window-height="1016"
     inkscape:window-x="0"
     inkscape:window-y="32"
     inkscape:window-maximized="1"
     inkscape:current-layer="active-center" />
  <g
     id="pressed-center"
     transform="matrix(1.0909091,0,0,1.0909091,-2.1818182,0)">
    <g
       transform="translate(46)"
       id="g1">
      <rect
         style="opacity:0.001"
         width="22"
         height="22"
         x="0"
         y="0"
         id="rect1" />
    </g>
    <path
       style="fill:#fec440"
       transform="matrix(0.91666666,0,0,0.91666666,2,0)"
       d="M 60 2 A 10 10 0 0 0 50 12 A 10 10 0 0 0 60 22 A 10 10 0 0 0 70 12 A 10 10 0 0 0 60 2 z M 56 14 L 64 14 L 64 16 L 56 16 L 56 14 z"
       id="path1" />
  </g>
  <g
     id="hover-center"
     transform="matrix(1.0909091,0,0,1.0909091,-1.0909091,0)">
    <g
       transform="translate(23)"
       id="g2">
      <rect
         style="opacity:0.001"
         width="22"
         height="22"
         x="0"
         y="0"
         id="rect2" />
    </g>
    <path
       style="fill:#fec440"
       transform="matrix(0.91666666,0,0,0.91666666,1,0)"
       d="M 36 2 A 10 10 0 0 0 26 12 A 10 10 0 0 0 36 22 A 10 10 0 0 0 46 12 A 10 10 0 0 0 36 2 z M 32 14 L 40 14 L 40 16 L 32 16 L 32 14 z"
       id="path2" />
  </g>
  <g
     id="inactive-center"
     transform="matrix(1.0909091,0,0,1.0909091,72.000001,0)"
     style="fill:#fec440;fill-opacity:1">
    <rect
       style="opacity:0.001;fill:#fec440;fill-opacity:1"
       width="22"
       height="22"
       x="0"
       y="0"
       id="rect3" />
    <path
       style="opacity:0.3;fill:#fec440;fill-opacity:1"
       d="m 7.3333664,12.83335 v 1.833317 H 14.666634 V 12.83335 Z"
       id="path3" />
  </g>
  <g
     id="deactivated-center"
     transform="matrix(1.0909091,0,0,1.0909091,96.000001,0)"
     style="fill:#fec440;fill-opacity:1">
    <rect
       style="opacity:0.001;fill:#fec440;fill-opacity:1"
       width="22"
       height="22"
       x="0"
       y="0"
       id="rect4" />
    <path
       style="opacity:0.3;fill:#fec440;fill-opacity:1"
       d="m 7.3333663,12.83335 v 1.833317 H 14.666634 V 12.83335 Z"
       id="path4" />
  </g>
  <g
     id="active-center"
     transform="matrix(1.0909091,0,0,1.0909091,-25.090909,0)"
     style="fill:#0e131a;fill-opacity:1">
    <g
       transform="translate(23)"
       id="g5"
       style="fill:#0e131a;fill-opacity:1">
      <rect
         style="opacity:0.00100002;fill:#0e131a;fill-opacity:1"
         width="22"
         height="22"
         x="0"
         y="0"
         id="rect5" />
    </g>
    <rect
       style="fill:#fec440;fill-opacity:1;stroke-width:57.7028;stroke-opacity:0.83427;paint-order:markers stroke fill"
       id="rect6"
       width="11.091341"
       height="5.3368917"
       x="28.454329"
       y="11" />
    <path
       style="fill:#0e131a;fill-opacity:1"
       transform="matrix(0.91666666,0,0,0.91666666,23,0)"
       d="M 12 2 A 10 10 0 0 0 2 12 A 10 10 0 0 0 12 22 A 10 10 0 0 0 22 12 A 10 10 0 0 0 12 2 z M 8 14 L 16 14 L 16 16 L 8 16 L 8 14 z"
       id="path5" />
  </g>
</svg>
